<svg width="20" height="20" viewBox="0 0 20 20" fill="none" xmlns="http://www.w3.org/2000/svg">
<rect width="20" height="20" fill="#FF6900"/>
<path d="M8.40909 16V4.36364H9.81818V10.1364H9.95455L15.1818 4.36364H17.0227L12.1364 9.61364L17.0227 16H15.3182L11.2727 10.5909L9.81818 12.2273V16H8.40909Z" fill="white"/>
<path d="M12.0455 4.36364H13.4545V12.0682C13.4545 12.8636 13.267 13.5739 12.892 14.1989C12.5208 14.8201 11.9962 15.3106 11.3182 15.6705C10.6402 16.0265 9.8447 16.2045 8.93182 16.2045C8.01894 16.2045 7.22348 16.0265 6.54545 15.6705C5.86742 15.3106 5.34091 14.8201 4.96591 14.1989C4.5947 13.5739 4.40909 12.8636 4.40909 12.0682V4.36364H5.81818V11.9545C5.81818 12.5227 5.94318 13.0284 6.19318 13.4716C6.44318 13.911 6.79924 14.2576 7.26136 14.5114C7.72727 14.7614 8.28409 14.8864 8.93182 14.8864C9.57955 14.8864 10.1364 14.7614 10.6023 14.5114C11.0682 14.2576 11.4242 13.911 11.6705 13.4716C11.9205 13.0284 12.0455 12.5227 12.0455 11.9545V4.36364Z" fill="white"/>
</svg>
